<?xml version="1.0" encoding="utf-8"?>
<!-- Generator: Adobe Illustrator 25.4.1, SVG Export Plug-In . SVG Version: 6.00 Build 0)  -->
<svg version="1.1" id="Warstwa_1" xmlns="http://www.w3.org/2000/svg" xmlns:xlink="http://www.w3.org/1999/xlink" x="0px" y="0px"
	 viewBox="0 0 595.28 595.28" style="enable-background:new 0 0 595.28 595.28;" xml:space="preserve">
<style type="text/css">
	.st0{fill:none;stroke:#000000;stroke-miterlimit:10;}
	.st1{fill:none;}
</style>
<path class="st0" d="M411.83,282.94c0,43.72,0,87.44,0,131.17h-73.79V282.94"/>
<rect x="238.44" y="295.26" class="st0" width="99.61" height="118.85"/>
<path class="st0" d="M333.07,383.59h-15.7v-27.42c1.24-0.7,3.8-1.94,7.28-2.07c4.13-0.15,7.18,1.36,8.43,2.07
	C333.07,365.31,333.07,374.45,333.07,383.59z"/>
<polygon class="st0" points="282.9,414.11 378.28,414.11 378.28,394.58 311.88,394.58 "/>
<polyline class="st0" points="371.25,304.7 371.25,394.58 345.08,394.58 345.08,304.7 345.08,304.7 "/>
<path class="st0" d="M360.45,284.47"/>
<g>
	<rect x="352.99" y="310.5" class="st0" width="10.05" height="21.64"/>
	<line class="st0" x1="358.02" y1="305.47" x2="358.02" y2="332.14"/>
	<path class="st0" d="M352.99,310.5c0-2.78,2.25-5.03,5.03-5.03c2.78,0,5.03,2.25,5.03,5.03"/>
	<path class="st0" d="M358.02,315.52"/>
	<path class="st0" d="M358.02,302.22c-4.57,0-8.28,3.71-8.28,8.28h3.16h13.4C366.3,305.93,362.59,302.22,358.02,302.22z"/>
	<line class="st0" x1="363.05" y1="310.5" x2="366.59" y2="310.5"/>
	<line class="st0" x1="358.02" y1="310.5" x2="354.47" y2="306.95"/>
	<line class="st0" x1="358.02" y1="310.5" x2="361.41" y2="307.1"/>
</g>
<path class="st0" d="M345.08,304.7c0-6.49,5.86-11.74,13.09-11.74c7.23,0,13.09,5.26,13.09,11.74"/>
<path class="st0" d="M357.59,309.03"/>
<g>
	<rect x="352.99" y="358.07" class="st0" width="10.05" height="21.38"/>
	<line class="st0" x1="358.02" y1="353.1" x2="358.02" y2="379.45"/>
	<path class="st0" d="M352.99,358.07c0-2.74,2.25-4.97,5.03-4.97c2.78,0,5.03,2.22,5.03,4.97"/>
	<path class="st0" d="M358.02,363.03"/>
	<path class="st0" d="M358.02,349.89c-4.57,0-8.28,3.66-8.28,8.18h3.16h13.4C366.3,353.55,362.59,349.89,358.02,349.89z"/>
	<line class="st0" x1="363.05" y1="358.07" x2="366.59" y2="358.07"/>
	<line class="st0" x1="358.02" y1="358.07" x2="354.47" y2="354.56"/>
	<line class="st0" x1="358.02" y1="358.07" x2="361.41" y2="354.71"/>
</g>
<path class="st0" d="M357.59,356.69"/>
<polyline class="st0" points="404.46,304.7 404.46,394.58 378.28,394.58 378.28,304.7 378.28,304.7 "/>
<g>
	<rect x="386.2" y="310.5" class="st0" width="10.05" height="21.64"/>
	<line class="st0" x1="391.22" y1="305.47" x2="391.22" y2="332.14"/>
	<path class="st0" d="M386.2,310.5c0-2.78,2.25-5.03,5.03-5.03c2.78,0,5.03,2.25,5.03,5.03"/>
	<path class="st0" d="M391.22,315.52"/>
	<path class="st0" d="M391.22,302.22c-4.57,0-8.28,3.71-8.28,8.28h3.16h13.4C399.5,305.93,395.8,302.22,391.22,302.22z"/>
	<line class="st0" x1="396.25" y1="310.5" x2="399.79" y2="310.5"/>
	<line class="st0" x1="391.22" y1="310.5" x2="387.68" y2="306.95"/>
	<line class="st0" x1="391.22" y1="310.5" x2="394.62" y2="307.1"/>
</g>
<path class="st0" d="M378.28,304.7c0-6.49,5.86-11.74,13.09-11.74c7.23,0,13.09,5.26,13.09,11.74"/>
<path class="st0" d="M390.8,309.03"/>
<g>
	<rect x="386.2" y="358.16" class="st0" width="10.05" height="21.64"/>
	<line class="st0" x1="391.22" y1="353.14" x2="391.22" y2="379.8"/>
	<path class="st0" d="M386.2,358.16c0-2.78,2.25-5.03,5.03-5.03c2.78,0,5.03,2.25,5.03,5.03"/>
	<path class="st0" d="M391.22,363.19"/>
	<path class="st0" d="M391.22,349.89c-4.57,0-8.28,3.71-8.28,8.28h3.16h13.4C399.5,353.59,395.8,349.89,391.22,349.89z"/>
	<line class="st0" x1="396.25" y1="358.16" x2="399.79" y2="358.16"/>
	<line class="st0" x1="391.22" y1="358.16" x2="387.68" y2="354.62"/>
	<line class="st0" x1="391.22" y1="358.16" x2="394.62" y2="354.77"/>
</g>
<path class="st0" d="M390.8,356.69"/>
<line class="st0" x1="345.08" y1="304.7" x2="345.08" y2="283.32"/>
<line class="st0" x1="404.46" y1="305.34" x2="404.46" y2="282.52"/>
<line class="st0" x1="371.42" y1="310.5" x2="378.46" y2="310.5"/>
<line class="st0" x1="374.94" y1="280.26" x2="345.08" y2="289.57"/>
<line class="st0" x1="371.42" y1="281.16" x2="371.42" y2="273.75"/>
<line class="st0" x1="378.46" y1="281.36" x2="378.46" y2="273.75"/>
<line class="st0" x1="378.46" y1="273.75" x2="371.42" y2="273.75"/>
<line class="st0" x1="374.94" y1="280.26" x2="404.8" y2="289.57"/>
<path class="st0" d="M263.71,379.21h-10.15v-23.63c0.58-0.44,2.32-1.67,4.88-1.73c2.8-0.07,4.72,1.31,5.27,1.73
	C263.71,363.46,263.71,371.34,263.71,379.21z"/>
<path class="st0" d="M262.9,337.42h-8.68v-17.37c0.55-0.38,2.12-1.35,4.36-1.35c2.21,0.01,3.77,0.97,4.32,1.35
	C262.9,325.84,262.9,331.63,262.9,337.42z"/>
<path class="st0" d="M262.14,313.19h-7.17v-7.17c0.46-0.32,1.74-1.1,3.56-1.11c1.85-0.01,3.15,0.8,3.61,1.11
	C262.14,308.42,262.14,310.81,262.14,313.19z"/>
<rect x="371.42" y="289.7" class="st0" width="7.04" height="5.43"/>
<line class="st0" x1="360.53" y1="358" x2="360.53" y2="379.45"/>
<line class="st0" x1="355.53" y1="358" x2="355.53" y2="379.45"/>
<line class="st0" x1="393.72" y1="358.58" x2="393.72" y2="380.02"/>
<line class="st0" x1="388.72" y1="358.58" x2="388.72" y2="380.02"/>
<rect x="337.09" y="281.16" class="st0" width="8.98" height="1.74"/>
<rect x="237.7" y="284.47" class="st0" width="8.76" height="1.74"/>
<rect x="191.11" y="232.51" class="st0" width="12.02" height="1.74"/>
<rect x="238.44" y="295.26" class="st0" width="99.62" height="1.74"/>
<rect x="311.79" y="343.51" class="st0" width="26.25" height="1.74"/>
<rect x="311.79" y="345.26" class="st0" width="26.25" height="1.74"/>
<rect x="278.51" y="343.51" class="st0" width="26.25" height="1.74"/>
<rect x="245.47" y="343.41" class="st0" width="25.94" height="1.74"/>
<rect x="179.11" y="343.51" class="st0" width="59.32" height="1.74"/>
<rect x="278.51" y="345.26" class="st0" width="26.25" height="1.74"/>
<rect x="245.47" y="345.26" class="st0" width="25.94" height="1.74"/>
<rect x="403.61" y="281.16" class="st0" width="8.98" height="1.74"/>
<rect x="370.45" y="272" class="st0" width="8.98" height="1.74"/>
<rect x="338.05" y="394.58" class="st0" width="40.23" height="3.16"/>
<line class="st0" x1="311.88" y1="394.58" x2="282.9" y2="414.11"/>
<line class="st0" x1="311.88" y1="383.59" x2="282.9" y2="403.12"/>
<line class="st0" x1="282.9" y1="403.12" x2="282.9" y2="414.11"/>
<line class="st0" x1="311.88" y1="383.59" x2="338.05" y2="383.59"/>
<line class="st0" x1="378.28" y1="394.58" x2="411.83" y2="394.58"/>
<polyline class="st0" points="302.61,300.17 302.61,301.58 303.59,301.58 303.59,302.99 304.76,302.99 304.76,388.39 311.88,383.59 
	311.79,302.99 312.96,302.99 312.96,301.58 313.94,301.58 313.94,300.17 "/>
<polyline class="st0" points="269.26,300.17 269.26,301.58 270.24,301.58 270.24,302.99 271.41,302.99 271.41,394.58 278.44,394.58 
	278.44,302.99 279.61,302.99 279.61,301.58 280.59,301.58 280.59,300.17 "/>
<polyline class="st0" points="238.44,394.58 245.47,394.58 245.47,302.99 246.64,302.99 246.64,301.58 247.62,301.58 247.62,300.17 
	"/>
<line class="st0" x1="313.94" y1="300.17" x2="338.04" y2="300.17"/>
<line class="st0" x1="280.59" y1="300.17" x2="302.61" y2="300.17"/>
<path class="st0" d="M240.59,352.2"/>
<polyline class="st0" points="229.26,352.2 229.26,353.6 230.24,353.6 230.24,355.01 231.41,355.01 231.41,411.11 238.56,411.11 
	238.44,355.01 "/>
<polyline class="st0" points="197.7,355.01 197.7,411.11 204.73,411.11 204.73,355.01 205.9,355.01 205.9,353.6 206.88,353.6 
	206.88,352.2 "/>
<line class="st0" x1="206.88" y1="352.2" x2="228.9" y2="352.2"/>
<line class="st0" x1="247.55" y1="300.17" x2="269.73" y2="300.17"/>
<rect x="238.44" y="286.39" class="st0" width="7.04" height="8.87"/>
<line class="st0" x1="254.97" y1="306.03" x2="253.58" y2="304.09"/>
<line class="st0" x1="253.73" y1="355.65" x2="252.33" y2="353.72"/>
<line class="st0" x1="254.19" y1="320.09" x2="252.79" y2="318.15"/>
<line class="st0" x1="262.97" y1="320.09" x2="264.37" y2="318.15"/>
<line class="st0" x1="262.14" y1="306.03" x2="263.53" y2="304.1"/>
<line class="st0" x1="263.67" y1="355.65" x2="265.06" y2="353.72"/>
<path class="st0" d="M253.86,304.49c0.56-0.43,2.06-1.47,4.24-1.6c2.73-0.16,4.65,1.21,5.15,1.6"/>
<line class="st0" x1="258.56" y1="337.42" x2="258.56" y2="318.7"/>
<line class="st0" x1="258.56" y1="313.19" x2="258.56" y2="304.92"/>
<line class="st0" x1="254.97" y1="309.06" x2="261.93" y2="309.06"/>
<path class="st0" d="M252.79,318.44c0.64-0.5,2.66-1.94,5.63-1.99c3.16-0.05,5.33,1.51,5.95,1.99"/>
<line class="st0" x1="254.36" y1="323.28" x2="262.92" y2="323.28"/>
<line class="st0" x1="254.27" y1="328.13" x2="262.89" y2="328.13"/>
<line class="st0" x1="254.36" y1="332.6" x2="262.92" y2="332.6"/>
<path class="st0" d="M296.08,337.42h-8.68v-17.37c0.55-0.38,2.12-1.35,4.36-1.35c2.21,0.01,3.77,0.97,4.32,1.35
	C296.08,325.84,296.08,331.63,296.08,337.42z"/>
<path class="st0" d="M295.32,313.19h-7.17v-7.17c0.46-0.32,1.74-1.1,3.56-1.11c1.85-0.01,3.15,0.8,3.61,1.11
	C295.32,308.42,295.32,310.81,295.32,313.19z"/>
<line class="st0" x1="288.16" y1="306.03" x2="286.76" y2="304.09"/>
<line class="st0" x1="287.37" y1="320.09" x2="285.97" y2="318.15"/>
<line class="st0" x1="296.15" y1="320.09" x2="297.55" y2="318.15"/>
<line class="st0" x1="295.32" y1="306.03" x2="296.71" y2="304.1"/>
<path class="st0" d="M287.04,304.49c0.56-0.43,2.06-1.47,4.24-1.6c2.73-0.16,4.65,1.21,5.15,1.6"/>
<line class="st0" x1="291.74" y1="337.42" x2="291.74" y2="318.7"/>
<line class="st0" x1="291.74" y1="313.19" x2="291.74" y2="304.92"/>
<line class="st0" x1="288.16" y1="309.06" x2="295.11" y2="309.06"/>
<path class="st0" d="M285.97,318.44c0.64-0.5,2.66-1.94,5.63-1.99c3.16-0.05,5.33,1.51,5.95,1.99"/>
<line class="st0" x1="287.54" y1="323.28" x2="296.1" y2="323.28"/>
<line class="st0" x1="287.45" y1="328.13" x2="296.07" y2="328.13"/>
<line class="st0" x1="287.54" y1="332.6" x2="296.1" y2="332.6"/>
<path class="st0" d="M329.53,337.81h-8.68v-17.37c0.55-0.38,2.12-1.35,4.36-1.35c2.21,0.01,3.77,0.97,4.32,1.35
	C329.53,326.23,329.53,332.02,329.53,337.81z"/>
<path class="st0" d="M328.78,313.58h-7.17v-7.17c0.46-0.32,1.74-1.1,3.56-1.11c1.85-0.01,3.15,0.79,3.61,1.11
	C328.78,308.8,328.78,311.19,328.78,313.58z"/>
<line class="st0" x1="321.61" y1="306.41" x2="320.21" y2="304.48"/>
<line class="st0" x1="320.82" y1="320.47" x2="319.43" y2="318.54"/>
<line class="st0" x1="329.61" y1="320.47" x2="331" y2="318.54"/>
<line class="st0" x1="328.78" y1="306.41" x2="330.17" y2="304.48"/>
<path class="st0" d="M320.5,304.87c0.56-0.43,2.06-1.47,4.24-1.6c2.73-0.16,4.65,1.21,5.15,1.6"/>
<line class="st0" x1="325.19" y1="337.81" x2="325.19" y2="319.09"/>
<line class="st0" x1="325.19" y1="313.58" x2="325.19" y2="305.3"/>
<line class="st0" x1="321.61" y1="309.44" x2="328.56" y2="309.44"/>
<path class="st0" d="M319.43,318.82c0.64-0.5,2.66-1.94,5.63-1.99c3.16-0.05,5.33,1.51,5.95,1.99"/>
<line class="st0" x1="321" y1="323.67" x2="329.56" y2="323.67"/>
<line class="st0" x1="320.9" y1="328.51" x2="329.52" y2="328.51"/>
<line class="st0" x1="321" y1="332.98" x2="329.56" y2="332.98"/>
<line class="st0" x1="363.05" y1="321.32" x2="352.99" y2="321.32"/>
<line class="st0" x1="363.19" y1="326.73" x2="353.14" y2="326.73"/>
<line class="st0" x1="362.62" y1="316.07" x2="352.56" y2="316.07"/>
<line class="st0" x1="258.44" y1="379.21" x2="258.44" y2="353.85"/>
<line class="st0" x1="253.56" y1="366.53" x2="263.71" y2="366.53"/>
<line class="st0" x1="253.56" y1="372.7" x2="263.71" y2="372.7"/>
<line class="st0" x1="253.56" y1="360.36" x2="263.71" y2="360.36"/>
<path class="st0" d="M252.33,353.72c0.78-0.59,2.8-1.95,5.72-2.13c3.69-0.23,6.3,1.6,7.01,2.13"/>
<path class="st0" d="M297.36,379.45h-10.15v-23.63c0.58-0.44,2.32-1.67,4.88-1.73c2.8-0.07,4.72,1.31,5.27,1.73
	C297.36,363.69,297.36,371.57,297.36,379.45z"/>
<line class="st0" x1="287.37" y1="355.89" x2="285.97" y2="353.95"/>
<line class="st0" x1="317.36" y1="356.31" x2="315.97" y2="354.38"/>
<line class="st0" x1="297.31" y1="355.88" x2="298.7" y2="353.95"/>
<line class="st0" x1="333.07" y1="356.31" x2="334.46" y2="354.38"/>
<line class="st0" x1="292.08" y1="379.45" x2="292.08" y2="354.09"/>
<line class="st0" x1="287.21" y1="366.77" x2="297.36" y2="366.77"/>
<line class="st0" x1="287.21" y1="372.94" x2="297.36" y2="372.94"/>
<line class="st0" x1="287.21" y1="360.6" x2="297.36" y2="360.6"/>
<path class="st0" d="M285.97,353.95c0.78-0.59,2.8-1.95,5.72-2.13c3.69-0.23,6.3,1.6,7.01,2.13"/>
<line class="st0" x1="324.97" y1="383.81" x2="324.97" y2="354.1"/>
<path class="st0" d="M315.97,354.38c1.29-0.86,4.27-2.59,8.43-2.79c5.12-0.25,8.81,1.97,10.06,2.8"/>
<line class="st0" x1="245.47" y1="394.58" x2="295.32" y2="394.58"/>
<line class="st0" x1="311.88" y1="383.59" x2="311.88" y2="394.58"/>
<rect x="170.47" y="171.23" class="st1" width="253.53" height="253.53"/>
<polygon class="st0" points="179.11,345.26 208.3,345.26 238.44,345.26 238.44,411.11 179.11,411.11 "/>
<rect x="197.7" y="345.26" class="st0" width="40.74" height="65.85"/>
<rect x="179.11" y="411.11" class="st0" width="103.79" height="3"/>
<line class="st0" x1="191.18" y1="343.51" x2="192.37" y2="234.68"/>
<line class="st0" x1="203.15" y1="343.51" x2="201.97" y2="234.77"/>
<line class="st0" x1="191.71" y1="295.26" x2="202.58" y2="295.26"/>
<line class="st0" x1="191.71" y1="303.26" x2="202.58" y2="303.26"/>
<line class="st0" x1="191.68" y1="311.27" x2="202.55" y2="311.27"/>
<line class="st0" x1="191.71" y1="319.5" x2="202.58" y2="319.5"/>
<path class="st1" d="M246.77,257.66c1.78,1.01,2.92,2.13,3.61,2.92c0.17,0.19,0.82,0.95,1.52,2.06c0.51,0.81,0.62,1.14,1.68,2.98
	c0.64,1.11,0.91,1.54,1.47,1.93c0.66,0.46,0.89,0.28,1.26,0.67c1.01,1.07,0.11,3.25-0.34,3.88c-0.07,0.1-0.28,0.4-0.4,0.35
	c-0.08-0.03-0.08-0.21-0.08-0.34"/>
<path d="M272.74,256.42c-1.01,0.43-2.14,0.91-3.41,1.85c-0.29,0.21-1.14,0.87-2.32,1.55c-0.62,0.36-1.11,0.6-1.76,0.63
	c-0.54,0.03-0.7-0.11-0.96-0.05c-0.01-0.03-0.02-0.06-0.02-0.09c-0.02-0.08-0.09-0.27-0.02-0.48c0.06-0.19,0.16-0.23,0.31-0.45
	c0.12-0.18,0.34-0.58,0.22-0.71c-0.1-0.11-0.39,0-0.54,0.06c-0.31,0.11-0.34,0.23-0.56,0.26c-0.25,0.03-0.45-0.09-0.49-0.12
	c-0.18-0.12-0.17-0.22-0.4-0.46c-0.16-0.17-0.34-0.36-0.47-0.32c-0.16,0.06-0.17,0.46-0.13,0.73c0.04,0.27,0.13,0.32,0.14,0.53
	c0.01,0.24-0.08,0.43-0.17,0.57c-0.01-0.02-0.02-0.05-0.04-0.07c-0.23-0.25-0.42-0.15-0.95-0.45c-0.56-0.32-0.89-0.76-1.28-1.36
	c-0.74-1.15-1.2-2.12-1.36-2.44c-0.7-1.42-1.49-2.36-2.19-3.2c-1.73-2.07-3.61-3.27-3.71-3.16c-0.06,0.07,0.62,0.65,1.2,1.89
	c0.36,0.77,0.41,1.21,0.33,1.6c-0.03,0.17-0.13,0.66-0.52,0.92c-0.25,0.16-0.39,0.09-0.47,0.21c-0.2,0.31,0.66,0.84,1.02,1.97
	c0.1,0.32,0.42,1.32-0.05,2.02c-0.14,0.2-0.29,0.3-0.27,0.46c0.04,0.35,0.81,0.45,1.43,0.66c1.59,0.54,2.48,1.88,2.8,2.35
	c0.33,0.5,1.12,1.68,0.81,2.67c-0.04,0.12-0.17,0.49-0.13,0.51c0.04,0.02,0.15-0.26,0.43-0.56c0.36-0.4,0.75-0.57,0.83-0.61
	c0.23-0.1,0.43-0.14,0.55-0.16c0.26-0.05,0.44-0.05,0.5-0.05c0.04,0,0.08-0.04,0.12-0.05c0.04,0.16,0.08,0.36,0.1,0.69
	c0,0.04,0.02,0.28,0.09,0.3c0.09,0.02,0.18-0.34,0.3-0.34c0.11,0.01,0.07,0.33,0.3,0.49c0.2,0.15,0.55,0.14,0.74-0.02
	c0.11-0.09,0.15-0.2,0.21-0.19c0.09,0.02,0.03,0.34,0.15,0.4c0.15,0.07,0.46-0.28,0.62-0.45c0.02-0.02,0.03-0.04,0.05-0.06
	c0.08,0.05,0.17,0.11,0.29,0.2c0.1,0.07,0.26,0.2,0.42,0.39c0.06,0.07,0.32,0.4,0.46,0.92c0.11,0.4,0.08,0.69,0.12,0.7
	c0.05,0,0.1-0.39,0.12-0.51c0.17-1.02,1.41-1.72,1.93-2.01c0.5-0.28,1.9-1.07,3.56-0.82c0.64,0.1,1.37,0.35,1.57,0.06
	c0.09-0.13,0-0.29-0.03-0.53c-0.11-0.84,0.64-1.59,0.87-1.82c0.83-0.84,1.84-0.92,1.8-1.29c-0.01-0.15-0.18-0.15-0.32-0.4
	c-0.23-0.41-0.09-0.89-0.05-1.06c0.11-0.39,0.35-0.76,1.02-1.28c1.08-0.84,1.96-1.04,1.93-1.13
	C277.45,255.16,275.22,255.37,272.74,256.42z"/>
<path d="M395.03,228.56c-0.56,0.24-1.18,0.5-1.88,1.02c-0.16,0.12-0.63,0.48-1.28,0.86c-0.34,0.2-0.61,0.33-0.97,0.35
	c-0.3,0.01-0.39-0.06-0.53-0.03c0-0.02-0.01-0.04-0.01-0.05c-0.01-0.04-0.05-0.15-0.01-0.26c0.03-0.1,0.09-0.13,0.17-0.25
	c0.07-0.1,0.19-0.32,0.12-0.39c-0.05-0.06-0.22,0-0.3,0.03c-0.17,0.06-0.19,0.13-0.31,0.14c-0.14,0.02-0.25-0.05-0.27-0.07
	c-0.1-0.06-0.09-0.12-0.22-0.26c-0.09-0.09-0.19-0.2-0.26-0.18c-0.09,0.03-0.09,0.25-0.07,0.4c0.02,0.15,0.07,0.18,0.08,0.29
	c0.01,0.13-0.05,0.24-0.09,0.31c-0.01-0.01-0.01-0.03-0.02-0.04c-0.13-0.14-0.23-0.08-0.52-0.25c-0.31-0.18-0.49-0.42-0.7-0.75
	c-0.41-0.63-0.66-1.17-0.75-1.34c-0.39-0.78-0.82-1.3-1.21-1.77c-0.95-1.14-1.99-1.8-2.05-1.74c-0.03,0.04,0.34,0.36,0.66,1.04
	c0.2,0.42,0.23,0.67,0.18,0.88c-0.02,0.1-0.07,0.37-0.29,0.51c-0.14,0.09-0.21,0.05-0.26,0.12c-0.11,0.17,0.37,0.46,0.56,1.09
	c0.06,0.18,0.23,0.73-0.03,1.12c-0.08,0.11-0.16,0.16-0.15,0.25c0.02,0.19,0.45,0.25,0.79,0.36c0.88,0.3,1.37,1.04,1.54,1.3
	c0.18,0.27,0.62,0.93,0.45,1.47c-0.02,0.07-0.09,0.27-0.07,0.28c0.02,0.01,0.08-0.14,0.23-0.31c0.2-0.22,0.41-0.31,0.46-0.33
	c0.13-0.05,0.24-0.08,0.31-0.09c0.14-0.03,0.24-0.03,0.28-0.03c0.02,0,0.04-0.02,0.06-0.03c0.02,0.09,0.04,0.2,0.05,0.38
	c0,0.02,0.01,0.16,0.05,0.16c0.05,0.01,0.1-0.19,0.17-0.18c0.06,0,0.04,0.18,0.16,0.27c0.11,0.08,0.3,0.08,0.41-0.01
	c0.06-0.05,0.08-0.11,0.11-0.11c0.05,0.01,0.02,0.19,0.08,0.22c0.08,0.04,0.26-0.15,0.34-0.25c0.01-0.01,0.02-0.02,0.03-0.03
	c0.04,0.02,0.09,0.06,0.16,0.11c0.05,0.04,0.14,0.11,0.23,0.22c0.03,0.04,0.18,0.22,0.26,0.51c0.06,0.22,0.04,0.38,0.07,0.38
	c0.03,0,0.05-0.22,0.07-0.28c0.09-0.56,0.78-0.95,1.07-1.11c0.27-0.15,1.05-0.59,1.96-0.45c0.36,0.05,0.76,0.2,0.87,0.03
	c0.05-0.07,0-0.16-0.02-0.29c-0.06-0.46,0.35-0.88,0.48-1.01c0.46-0.46,1.02-0.51,1-0.71c-0.01-0.08-0.1-0.08-0.18-0.22
	c-0.13-0.22-0.05-0.49-0.03-0.58c0.06-0.21,0.2-0.42,0.56-0.71c0.6-0.46,1.08-0.58,1.07-0.63
	C397.63,227.86,396.4,227.98,395.03,228.56z"/>
<path d="M392.19,200.89c-0.65,0.89-1.38,1.87-2,3.33c-0.14,0.33-0.54,1.32-1.22,2.51c-0.35,0.63-0.66,1.08-1.19,1.43
	c-0.46,0.3-0.66,0.26-0.85,0.44c-0.02-0.02-0.05-0.05-0.06-0.06c-0.06-0.06-0.21-0.19-0.26-0.4c-0.05-0.19,0.02-0.28,0.04-0.55
	c0.01-0.22,0-0.67-0.17-0.73c-0.14-0.04-0.34,0.2-0.44,0.32c-0.21,0.26-0.17,0.37-0.35,0.5c-0.2,0.15-0.44,0.15-0.49,0.15
	c-0.22-0.01-0.25-0.1-0.58-0.2c-0.22-0.06-0.48-0.14-0.57-0.04c-0.11,0.13,0.08,0.48,0.26,0.69c0.17,0.21,0.27,0.21,0.39,0.38
	c0.13,0.2,0.15,0.42,0.14,0.57c-0.02-0.01-0.04-0.03-0.06-0.04c-0.33-0.1-0.44,0.09-1.04,0.09c-0.64,0.01-1.15-0.2-1.79-0.53
	c-1.22-0.61-2.11-1.21-2.41-1.41c-1.32-0.87-2.47-1.28-3.51-1.65c-2.54-0.91-4.77-0.99-4.8-0.84c-0.02,0.09,0.87,0.25,1.99,1.02
	c0.7,0.48,0.97,0.84,1.1,1.22c0.06,0.17,0.22,0.64,0.02,1.06c-0.13,0.26-0.29,0.27-0.3,0.42c-0.01,0.37,1,0.39,1.88,1.18
	c0.25,0.22,1.03,0.93,0.98,1.77c-0.02,0.24-0.1,0.4,0,0.53c0.22,0.28,0.93-0.02,1.56-0.15c1.64-0.34,3.09,0.36,3.6,0.61
	c0.54,0.26,1.82,0.88,2.05,1.89c0.03,0.12,0.1,0.51,0.15,0.5c0.04,0,0-0.3,0.08-0.7c0.11-0.53,0.35-0.87,0.41-0.94
	c0.15-0.2,0.3-0.34,0.4-0.42c0.2-0.18,0.35-0.26,0.4-0.3c0.03-0.02,0.05-0.07,0.07-0.1c0.11,0.12,0.25,0.27,0.43,0.55
	c0.02,0.04,0.16,0.24,0.23,0.21c0.09-0.03-0.02-0.39,0.09-0.44c0.1-0.05,0.23,0.25,0.51,0.28c0.24,0.03,0.54-0.16,0.63-0.39
	c0.05-0.13,0.03-0.25,0.08-0.27c0.09-0.03,0.2,0.28,0.33,0.27c0.16-0.01,0.26-0.47,0.31-0.71c0-0.02,0.01-0.05,0.01-0.08
	c0.09,0,0.2,0,0.35,0.02c0.12,0.02,0.33,0.04,0.56,0.13c0.09,0.03,0.48,0.18,0.86,0.56c0.29,0.29,0.42,0.56,0.46,0.54
	c0.04-0.02-0.11-0.39-0.16-0.5c-0.37-0.97,0.35-2.2,0.65-2.71c0.29-0.49,1.1-1.88,2.65-2.51c0.6-0.24,1.36-0.39,1.38-0.74
	c0.01-0.16-0.14-0.25-0.29-0.44c-0.51-0.67-0.25-1.69-0.17-2.01c0.29-1.15,1.12-1.73,0.9-2.02c-0.09-0.12-0.23-0.04-0.48-0.18
	c-0.41-0.23-0.53-0.72-0.58-0.89c-0.1-0.39-0.08-0.83,0.24-1.62c0.51-1.27,1.16-1.89,1.09-1.96
	C395.61,197.42,393.8,198.73,392.19,200.89z"/>
<path d="M250.36,221.09c-0.64,0.27-1.36,0.58-2.17,1.18c-0.18,0.14-0.72,0.55-1.48,0.99c-0.4,0.23-0.71,0.38-1.12,0.4
	c-0.35,0.02-0.45-0.07-0.61-0.03c0-0.02-0.01-0.04-0.01-0.06c-0.02-0.05-0.05-0.17-0.02-0.3c0.04-0.12,0.1-0.15,0.2-0.29
	c0.08-0.12,0.22-0.37,0.14-0.45c-0.06-0.07-0.25,0-0.35,0.04c-0.2,0.07-0.21,0.15-0.36,0.16c-0.16,0.02-0.29-0.06-0.31-0.08
	c-0.12-0.07-0.11-0.14-0.25-0.29c-0.1-0.11-0.22-0.23-0.3-0.2c-0.1,0.04-0.11,0.29-0.08,0.46c0.03,0.17,0.08,0.2,0.09,0.34
	c0.01,0.15-0.05,0.28-0.11,0.36c-0.01-0.01-0.01-0.03-0.02-0.04c-0.15-0.16-0.27-0.09-0.6-0.28c-0.36-0.2-0.56-0.48-0.81-0.87
	c-0.47-0.73-0.77-1.35-0.87-1.55c-0.44-0.9-0.95-1.5-1.39-2.04c-1.1-1.32-2.3-2.08-2.36-2.01c-0.04,0.04,0.4,0.41,0.77,1.2
	c0.23,0.49,0.26,0.77,0.21,1.02c-0.02,0.11-0.08,0.42-0.33,0.59c-0.16,0.1-0.25,0.06-0.3,0.14c-0.13,0.2,0.42,0.53,0.65,1.25
	c0.06,0.2,0.27,0.84-0.03,1.29c-0.09,0.13-0.18,0.19-0.17,0.29c0.03,0.22,0.51,0.29,0.91,0.42c1.01,0.34,1.58,1.19,1.78,1.5
	c0.21,0.32,0.71,1.07,0.51,1.7c-0.02,0.08-0.11,0.31-0.08,0.32c0.02,0.01,0.1-0.16,0.27-0.36c0.23-0.25,0.47-0.36,0.53-0.39
	c0.15-0.06,0.28-0.09,0.35-0.1c0.17-0.03,0.28-0.03,0.32-0.03c0.02,0,0.05-0.02,0.07-0.03c0.02,0.1,0.05,0.23,0.06,0.44
	c0,0.03,0.01,0.18,0.06,0.19c0.06,0.01,0.12-0.22,0.19-0.21c0.07,0.01,0.05,0.21,0.19,0.31c0.12,0.09,0.35,0.09,0.47-0.01
	c0.07-0.06,0.1-0.13,0.13-0.12c0.06,0.01,0.02,0.22,0.1,0.25c0.09,0.05,0.3-0.18,0.4-0.29c0.01-0.01,0.02-0.03,0.03-0.04
	c0.05,0.03,0.11,0.07,0.18,0.12c0.06,0.05,0.17,0.13,0.27,0.25c0.04,0.04,0.21,0.25,0.29,0.58c0.07,0.25,0.05,0.44,0.08,0.44
	c0.03,0,0.06-0.25,0.08-0.33c0.11-0.65,0.9-1.09,1.23-1.28c0.32-0.18,1.21-0.68,2.27-0.52c0.41,0.06,0.87,0.22,1,0.04
	c0.06-0.09,0-0.18-0.02-0.34c-0.07-0.53,0.41-1.01,0.55-1.16c0.53-0.54,1.17-0.59,1.15-0.82c-0.01-0.09-0.11-0.09-0.2-0.26
	c-0.15-0.26-0.06-0.57-0.03-0.67c0.07-0.25,0.22-0.48,0.65-0.81c0.69-0.53,1.24-0.66,1.23-0.72
	C253.35,220.29,251.94,220.42,250.36,221.09z"/>
<path d="M230.27,245.82c-0.46,0.76-0.97,1.6-1.35,2.81c-0.09,0.27-0.34,1.1-0.78,2.1c-0.24,0.53-0.44,0.92-0.85,1.24
	c-0.34,0.27-0.51,0.26-0.65,0.42c-0.02-0.01-0.04-0.03-0.06-0.05c-0.05-0.04-0.18-0.13-0.24-0.3c-0.05-0.15,0-0.22-0.01-0.44
	c-0.01-0.18-0.05-0.54-0.19-0.57c-0.11-0.02-0.26,0.19-0.33,0.29c-0.15,0.22-0.11,0.31-0.24,0.43c-0.15,0.14-0.34,0.15-0.38,0.15
	c-0.17,0.01-0.21-0.06-0.48-0.11c-0.18-0.03-0.4-0.08-0.46,0.01c-0.08,0.11,0.1,0.38,0.26,0.53c0.16,0.16,0.23,0.15,0.34,0.28
	c0.12,0.15,0.15,0.32,0.16,0.45c-0.02-0.01-0.03-0.02-0.05-0.03c-0.27-0.06-0.34,0.1-0.83,0.15c-0.52,0.05-0.93-0.08-1.47-0.29
	c-1.02-0.4-1.78-0.81-2.04-0.95c-1.12-0.59-2.08-0.84-2.94-1.06c-2.1-0.54-3.9-0.43-3.91-0.31c-0.01,0.07,0.71,0.13,1.67,0.66
	c0.6,0.33,0.84,0.6,0.97,0.89c0.06,0.13,0.23,0.5,0.09,0.85c-0.08,0.22-0.21,0.24-0.21,0.36c0.02,0.3,0.83,0.24,1.59,0.8
	c0.22,0.16,0.9,0.67,0.92,1.34c0.01,0.2-0.05,0.33,0.04,0.42c0.19,0.21,0.74-0.09,1.24-0.24c1.29-0.4,2.5,0.06,2.93,0.22
	c0.45,0.17,1.52,0.57,1.78,1.36c0.03,0.1,0.12,0.4,0.16,0.39c0.03-0.01-0.02-0.24,0.01-0.57c0.05-0.43,0.22-0.72,0.26-0.79
	c0.1-0.17,0.22-0.29,0.29-0.36c0.15-0.16,0.26-0.24,0.3-0.27c0.02-0.02,0.03-0.06,0.05-0.09c0.1,0.09,0.22,0.2,0.39,0.41
	c0.02,0.03,0.14,0.18,0.2,0.15c0.07-0.03-0.04-0.31,0.04-0.36c0.08-0.05,0.2,0.18,0.43,0.18c0.2,0,0.42-0.17,0.48-0.36
	c0.03-0.11,0-0.2,0.05-0.22c0.07-0.03,0.18,0.21,0.29,0.19c0.13-0.02,0.17-0.4,0.19-0.59c0-0.02,0-0.04,0.01-0.06
	c0.07-0.01,0.16-0.01,0.28-0.01c0.1,0,0.27,0.01,0.46,0.06c0.07,0.02,0.4,0.11,0.73,0.38c0.26,0.21,0.38,0.41,0.41,0.4
	c0.03-0.02-0.12-0.3-0.16-0.39c-0.37-0.75,0.11-1.79,0.32-2.22c0.19-0.41,0.74-1.59,1.94-2.21c0.47-0.24,1.06-0.41,1.05-0.7
	c0-0.13-0.13-0.19-0.27-0.33c-0.46-0.5-0.33-1.34-0.29-1.6c0.15-0.94,0.77-1.47,0.57-1.69c-0.08-0.09-0.18-0.01-0.4-0.11
	c-0.34-0.16-0.48-0.54-0.53-0.67c-0.11-0.3-0.13-0.66,0.07-1.32c0.31-1.05,0.78-1.6,0.73-1.65
	C232.74,242.78,231.39,243.96,230.27,245.82z"/>
</svg>
